# xmcd
#
# Track frame offsets: 
#        150
#        15097
#        32385
#        51879
#        71588
#        98901
#        114956
#        133609
#        157449
#        177887
#        191397
#        210255
#        226112
#
# Disc length: 3243 seconds
#
# Revision: 0
# Processed by: cddbd v1.5.2PL0 Copyright (c) Steve Scherf et al.
# Submitted via: ExactAudioCopy v0.95b3
#
DISCID=9b0ca90d
DTITLE=Midge Marsdan - Travel 'n Time
DYEAR=2007
DGENRE=Blues
TTITLE0=Waiting For Rain
TTITLE1=Kokomo
TTITLE2=Burning Rain
TTITLE3=The Midnight Special
TTITLE4=Struck Down By The Blues
TTITLE5=Trust Me Baby
TTITLE6=I Wanna Be With You
TTITLE7=Carry My Blues Away
TTITLE8=Little Ray
TTITLE9=Sea Cruise
TTITLE10=Slow Walk, Jive Talk
TTITLE11=Move Up to The Country
TTITLE12=Travellin' On
EXTD=
EXTT0=
EXTT1=
EXTT2=
EXTT3=
EXTT4=
EXTT5=
EXTT6=
EXTT7=
EXTT8=
EXTT9=
EXTT10=
EXTT11=
EXTT12=
PLAYORDER=
